<?xml version="1.0" encoding="UTF-8" standalone="no"?>
<!-- Created with Inkscape (http://www.inkscape.org/) -->

<svg
   version="1.1"
   id="svg2"
   width="2200"
   height="1480"
   viewBox="0 0 2200 1480"
   sodipodi:docname="Mahngiel Icon.ai"
   xmlns:inkscape="http://www.inkscape.org/namespaces/inkscape"
   xmlns:sodipodi="http://sodipodi.sourceforge.net/DTD/sodipodi-0.dtd"
   xmlns="http://www.w3.org/2000/svg"
   xmlns:svg="http://www.w3.org/2000/svg">
  <defs
     id="defs6" />
  <sodipodi:namedview
     id="namedview4"
     pagecolor="#ffffff"
     bordercolor="#000000"
     borderopacity="0.25"
     inkscape:showpageshadow="2"
     inkscape:pageopacity="0.0"
     inkscape:pagecheckerboard="0"
     inkscape:deskcolor="#d1d1d1" />
  <g
     id="g8"
     inkscape:groupmode="layer"
     inkscape:label="Mahngiel Icon"
     transform="matrix(1.3333333,0,0,-1.3333333,0,1480)">
    <path
       d="M 0,0 H 1650 V 1110 H 0 Z"
       style="fill:#ffffff;fill-opacity:1;fill-rule:nonzero;stroke:none"
       id="path10" />
    <g
       id="g12"
       transform="translate(1095.3115,711.0732)">
      <path
         d="m 0,0 v -129.832 h -66.426 v 91.493 L -270.301,79.394 -474.197,-38.339 v -91.493 h -66.426 V 0 l 270.322,156.093 z"
         style="fill:#48696e;fill-opacity:1;fill-rule:nonzero;stroke:none"
         id="path14" />
    </g>
    <g
       id="g16"
       transform="translate(1028.8857,437.2461)">
      <path
         d="m 0,0 -33.111,-19.089 v -0.04 l -170.764,-98.584 -107.217,61.906 -23.101,13.314 L -407.771,0 v 0.061 h 124.278 V 118.18 L -229.145,0.061 h 50.518 l 54.349,118.119 V 0.061 L 0,0.061 Z M -52.382,71.957 V 207.24 l -48.856,28.207 h -47.013 l -55.624,-118.969 -55.646,118.969 h -47.012 L -355.389,207.24 V 71.957 H -474.197 V -38.359 l 79.01,-45.615 27.822,-16.069 23.06,-13.293 140.43,-81.076 226.044,130.5 9.849,5.714 34.408,19.839 V 71.957 Z"
         style="fill:#48696e;fill-opacity:1;fill-rule:nonzero;stroke:none"
         id="path18" />
    </g>
  </g>
</svg>
